<svg viewBox="272.476 183.336 250 121.829" width="250" height="250" xmlns="http://www.w3.org/2000/svg">
  <path style="fill: none; stroke-width: 4px; stroke: rgb(60, 60, 60);" d="M 336.022 82.645 C 429.525 82.617 488.027 183.988 441.196 265.067 C 419.232 303.093 378.501 325.867 336.022 325.845" transform="matrix(0, -1, 1, 0, 192.555054, 601.022034)"></path>
  <polygon style="fill: rgb(60, 60, 60);" points="272.5 265 272.5 244.5 286 244.5 286 250 293.5 250 293.5 243 295.5 243 295.5 230 300 230 300 243 305 243 305 250 309 250 309 235 312 235 312 229 316 229 316 235 324.5 235 324.5 250 328 250 328 240 332 240 332 207 333.5 207 333.5 194 337 194 337 240 340 240 340 232 342 232 342 185 348 185 348 170 355 170 355 185 358 185 358 195 360 195 360 222 368 222 368 227 377 227 377 205 388 205 388 227 393 227 393 163 409 163 409 248 415 248 415 190 423 190 423 231 425 231 425 203 434.5 203 434.5 231 441 231 441 248 448 248 448 240 454 240 454 209 464 209 464 194 475 194 475 240 480 240 480 234 485 234 485 224 489 224 489 234 494 234 494 251 500 251 500 233 504 233 504 243 513 243 513 247 522 247 522 265"></polygon>
</svg>
