<?xml version="1.0" encoding="utf-8"?>
<svg viewBox="0 0 500 500" xmlns="http://www.w3.org/2000/svg">
  <path style="fill: none; stroke: rgb(17, 17, 17); stroke-width: 5px;" d="M 103.802 244.357 C 82.816 211.228 128.847 185.81 146.655 191.443 C 158.009 169.082 192.35 146.982 227.869 174.515 C 235.174 167.263 259.449 158.909 274.885 158.975 C 275.723 132.038 298.167 124.342 316.528 120.476 C 336.728 94.417 388.692 87.727 401.572 135.733"/>
  <path style="fill: rgb(17, 17, 17);" d="M 101.335 399.763 L 101.335 324.725 L 107.312 324.725 L 107.312 306.716 L 119.266 306.716 L 119.266 285.705 C 122.255 279.703 146.357 279.703 149.358 285.705 L 149.358 306.716 L 164.366 306.716 L 164.366 285.705 C 167.368 279.703 191.379 279.703 194.382 285.705 L 194.382 306.716 L 209.389 306.716 L 209.389 285.705 C 212.39 279.703 236.403 279.703 239.404 285.705 L 239.404 306.716 L 254.412 306.716 L 254.412 285.705 C 257.414 279.703 281.425 279.703 284.427 285.705 L 284.427 306.716 L 317.444 306.716 L 317.444 222.674 C 311.44 219.672 311.44 207.666 317.444 204.665 L 317.444 183.655 L 368.468 183.655 L 368.468 204.665 C 374.471 207.666 374.471 219.672 368.468 222.674 L 368.468 306.716 L 389.479 306.716 L 389.479 336.731 L 401.485 336.731 L 401.485 399.763 L 101.335 399.763 Z"/>
</svg>