<?xml version="1.0" encoding="utf-8"?>
<svg viewBox="0 0 500 500" xmlns="http://www.w3.org/2000/svg">
  <g>
    <path d="M 157.5 434 L 192.5 434 L 207 243 L 189 235 L 189 193 L 207.999 193 L 207.999 166 L 233.999 166 L 233.999 193 L 311 193 L 311 235 L 293 243 L 307.5 434 L 342.5 434 L 342.5 489 L 157.5 489 L 157.5 434 Z" style="stroke-width: 3px; stroke: rgb(0, 0, 0); fill-opacity: 0.7;"/>
    <path d="M 387.499 205 C 387.499 255.991 359.744 300.499 318.515 324.24 C 318.435 324.285 318.357 324.33 318.28 324.375 L 316.126 296.024 C 344.232 275.571 362.5 242.419 362.5 205 C 362.5 142.868 312.132 92.5 250 92.5 C 187.868 92.5 137.5 142.868 137.5 205 C 137.5 242.418 155.768 275.569 183.872 296.022 L 181.718 324.374 C 140.362 300.668 112.501 256.088 112.501 205 C 112.501 129.061 174.061 67.5 250 67.5 C 325.939 67.5 387.499 129.061 387.499 205 Z" style="stroke-width: 3px; stroke: rgb(0, 0, 0); fill-opacity: 0.7;"/>
    <path d="M 442.5 205 C 442.5 285.431 393.173 354.34 323.119 383.127 L 321.114 356.698 C 378.066 329.954 417.501 272.082 417.501 205 C 417.501 112.492 342.507 37.5 250 37.5 C 157.493 37.5 82.499 112.492 82.499 205 C 82.499 272.082 121.934 329.954 178.884 356.698 L 176.879 383.126 C 106.827 354.339 57.5 285.43 57.5 205 C 57.5 98.685 143.684 12.5 250 12.5 C 356.316 12.5 442.5 98.685 442.5 205 Z" style="stroke-width: 3px; stroke: rgb(0, 0, 0); fill-opacity: 0.7;"/>
  </g>
</svg>