<?xml version="1.0" encoding="utf-8"?>
<svg viewBox="0 0 500 500" xmlns="http://www.w3.org/2000/svg">
  <path style="stroke-width: 4px; stroke: rgb(0, 0, 0); fill-opacity: 0.7;" d="M 214.777 146.028 L 185.337 116.52 L 154.432 147.424 C 145.274 140.555 124.672 161.159 131.54 170.316 L 112.082 189.775 L 73.164 258.451 L 141.84 219.533 L 161.299 200.076 L 224.254 263.03 L 153.287 333.995 L 139.553 320.26 L 122.383 337.428 L 172.746 387.791 L 189.915 370.623 L 176.179 356.886 L 247.146 285.923 L 341.004 379.778 L 351.305 394.66 L 378.776 367.187 L 363.897 356.886 L 270.038 263.03 L 318.111 214.955 L 346.726 243.571 L 400.524 189.775 C 415.403 117.664 392.511 94.772 320.4 109.652 L 266.602 163.449 L 295.219 192.064 L 247.146 240.136 L 184.191 177.184 L 215.098 146.279 L 214.777 146.028 Z"/>
</svg>