<?xml version="1.0" encoding="utf-8"?>
<svg viewBox="0 0 500 500" xmlns="http://www.w3.org/2000/svg">
  <path d="M 250 100 C 217.604 100 187.607 110.27 163.086 127.731 L 372.269 336.913 C 389.73 312.393 400 282.396 400 250 C 400 167.157 332.843 100 250 100 Z M 100 250 C 100 332.843 167.157 400 250 400 C 282.396 400 312.393 389.73 336.914 372.269 L 127.731 163.086 C 110.27 187.607 100 217.604 100 250 Z M 450 250 C 450 360.457 360.457 450 250 450 C 139.543 450 50 360.457 50 250 C 50 139.543 139.543 50 250 50 C 360.457 50 450 139.543 450 250 Z" style="fill-opacity: 0.7; stroke-width: 4px; stroke: rgb(0, 0, 0);"/>
</svg>