<?xml version="1.0" encoding="utf-8"?>
<svg version="1.1" viewBox="0 0 512 512" style="width: 256px; height: 256px; opacity: 1;" xmlns="http://www.w3.org/2000/svg">
  <path d="M 217.784 183.429 C 205.747 195.437 198.702 211.374 195.52 227.915 L 195.292 229.103 L 196.502 229.103 L 239.446 229.102 C 239.479 229.1 239.479 229.1 239.5 229.1 C 242.819 229.1 245.441 230.277 247.632 232.468 C 249.823 234.659 251 237.281 251 240.6 C 251 243.919 249.823 246.541 247.632 248.732 C 245.441 250.923 242.819 252.1 239.5 252.1 C 239.479 252.1 239.428 252.099 239.395 252.097 L 193.422 252.097 L 193.441 253.116 C 193.526 257.554 193.838 261.959 194.349 266.222 L 194.455 267.103 L 195.342 267.103 L 239.446 267.102 C 239.479 267.1 239.479 267.1 239.5 267.1 C 242.819 267.1 245.441 268.277 247.632 270.468 C 249.823 272.659 251 275.281 251 278.6 C 251 281.919 249.823 284.541 247.632 286.732 C 245.441 288.923 242.819 290.1 239.5 290.1 C 239.479 290.1 239.428 290.099 239.395 290.097 L 199.682 290.097 L 200.167 291.436 C 202.874 298.923 206.311 305.381 210.155 310.081 C 230.979 335.216 258.776 337.238 282.608 332.239 C 306.464 327.236 324.917 316.403 331.773 313.53 L 367.761 385.507 C 338.769 406.442 302.72 419.407 262.791 419.407 C 221.398 419.407 183.568 405.676 153.811 382.68 C 124.059 359.689 102.618 327.661 94.214 290.855 L 94.045 290.113 L 93.296 290.08 C 90.288 289.949 87.899 288.763 85.868 286.732 C 83.677 284.541 82.5 281.919 82.5 278.6 C 82.5 275.281 83.677 272.659 85.868 270.468 C 87.092 269.245 88.411 268.362 90.002 267.791 L 90.707 267.539 L 90.655 266.784 C 90.41 263.224 90.287 259.649 90.287 256.03 C 90.287 254.761 90.3 253.501 90.325 252.24 L 90.339 251.544 L 89.698 251.292 C 88.233 250.715 87.011 249.875 85.868 248.732 C 83.677 246.541 82.5 243.919 82.5 240.6 C 82.5 237.281 83.677 234.659 85.868 232.468 C 87.486 230.85 89.306 229.792 91.555 229.347 L 92.235 229.212 L 92.34 228.518 C 98.174 189.868 116.299 155.998 144.022 131.623 C 171.75 107.244 208.843 92.593 252.894 92.593 C 308.84 92.593 349.579 109.212 377.392 141.907 L 320.806 206.038 C 304.064 177.97 282.199 168.601 262.356 168.172 C 242.468 167.741 224.857 176.438 217.784 183.429 Z" style="fill: rgb(17, 17, 17); fill-opacity: 0.6; stroke: rgb(0, 0, 0); stroke-width: 4px;"/>
</svg>