<?xml version="1.0" encoding="utf-8"?>
<svg viewBox="0 0 500 500" xmlns="http://www.w3.org/2000/svg">
  <g transform="matrix(0.93985, 0, 0, 0.93985, 3.7594, 44.658245)">
    <path d="M 282 55 C 282 55 282 382 282 382 L 528 382 C 432 305 367 188 367 55 C 367 55 282 55 282 55 C 282 55 282 55 282 55 L 282 55 Z" style=""/>
    <path d="M 125 103 C 125 103 184 157 254 157 C 254 157 254 196 254 196 C 184 196 125 155 125 155 C 125 155 66 196 -4 196 L -4 157 C 66 157 125 103 125 103 Z"/>
    <path d="M 125 191 C 125 191 184 245 254 245 C 254 245 254 284 254 284 C 184 284 125 243 125 243 C 125 243 66 284 -4 284 L -4 245 C 66 245 125 191 125 191 Z"/>
    <path d="M 125 279 C 125 279 184 333 254 333 C 254 333 254 372 254 372 C 184 372 125 331 125 331 C 125 331 66 372 -4 372 L -4 333 C 66 333 125 279 125 279 Z"/>
  </g>
</svg>