<?xml version="1.0" encoding="utf-8"?>
<svg viewBox="0 0 500 500" xmlns="http://www.w3.org/2000/svg">
  <path d="M 328.451 245.001 C 328.55 247.022 328.6 249.055 328.6 251.1 C 328.6 319.031 273.531 374.1 205.6 374.1 C 137.669 374.1 82.6 319.031 82.6 251.1 C 82.6 183.169 137.669 128.1 205.6 128.1 C 253.597 128.1 295.174 155.592 315.441 195.688 L 334.921 190.469 L 325.754 156.269 L 442.552 187.554 L 357.059 273.062 L 348.125 239.73 Z M 205.6 178.1 C 165.283 178.1 132.6 210.783 132.6 251.1 C 132.6 291.417 165.283 324.1 205.6 324.1 C 245.917 324.1 278.6 291.417 278.6 251.1 C 278.6 210.783 245.917 178.1 205.6 178.1 Z" style="fill-opacity: 0.7; stroke-width: 4px; stroke: rgb(0, 0, 0);"/>
</svg>