<?xml version="1.0" encoding="utf-8"?>
<svg viewBox="0 0 500 500" xmlns="http://www.w3.org/2000/svg" xmlns:xlink="http://www.w3.org/1999/xlink">
  <g style="" transform="matrix(1.85, 0, 0, 0.55, -133.998993, 221.330383)">
    <path d="M 157.567 386.672 L 176.486 386.672 L 184.324 39.399 L 174.594 24.854 L 174.594 -51.51 L 184.864 -51.51 L 184.864 -100.601 L 198.918 -100.601 L 198.918 -51.51 L 240.54 -51.51 L 240.54 24.854 L 230.81 39.399 L 238.648 386.672 L 257.567 386.672 L 257.567 486.672 L 157.567 486.672 L 157.567 386.672 Z"/>
    <path d="M 281.891 -29.692 C 281.891 63.019 266.888 143.943 244.602 187.108 C 244.559 187.19 244.517 187.272 244.475 187.354 L 243.311 135.807 C 258.503 98.619 268.378 38.343 268.378 -29.692 C 268.378 -142.659 241.152 -234.237 207.567 -234.237 C 173.982 -234.237 146.756 -142.659 146.756 -29.692 C 146.756 38.341 156.631 98.616 171.822 135.803 L 170.658 187.352 C 148.303 144.25 133.243 63.196 133.243 -29.692 C 133.243 -167.763 166.519 -279.692 207.567 -279.692 C 248.615 -279.692 281.891 -167.763 281.891 -29.692 Z"/>
    <path d="M 311.621 -29.692 C 311.621 116.547 284.958 241.836 247.091 294.176 L 246.007 246.123 C 276.792 197.497 298.108 92.276 298.108 -29.692 C 298.108 -197.888 257.571 -334.237 207.567 -334.237 C 157.563 -334.237 117.026 -197.888 117.026 -29.692 C 117.026 92.276 138.342 197.497 169.126 246.123 L 168.042 294.174 C 130.176 241.834 103.513 116.545 103.513 -29.692 C 103.513 -222.992 150.099 -379.692 207.567 -379.692 C 265.035 -379.692 311.621 -222.992 311.621 -29.692 Z"/>
  </g>
</svg>