<?xml version="1.0" encoding="utf-8"?>
<svg width="600" height="600" viewBox="-350 -350 700 700" xmlns="http://www.w3.org/2000/svg" xmlns:xlink="http://www.w3.org/1999/xlink">
  <g>
    <path d="M 250 0 C 250 138.071 138.071 250 0 250 C -138.071 250 -250 138.071 -250 0 C -250 -138.071 -138.071 -250 0 -250 C 138.071 -250 250 -138.071 250 0 Z M 0 -82.48 L -37.108 -187.578 L -106.399 -158.877 L -58.323 -58.323 L -158.877 -106.398 L -187.578 -37.107 L -82.482 0 L -187.578 37.108 L -158.877 106.399 L -58.324 58.324 L -106.399 158.877 L -37.108 187.578 L 0 82.481 L 37.108 187.578 L 106.398 158.877 L 58.322 58.323 L 158.877 106.399 L 187.578 37.108 L 82.481 0 L 187.578 -37.108 L 158.877 -106.399 L 58.324 -58.324 L 106.399 -158.877 L 37.108 -187.578 Z" style=""/>
  </g>
</svg>