<?xml version="1.0" encoding="utf-8"?>
<svg viewBox="0 0 13.98 20.08" xmlns="http://www.w3.org/2000/svg" xmlns:bx="https://boxy-svg.com">
  <path d="M 2.78 13.84 L 2.78 15.24 C 2.78 15.427 2.873 15.52 3.06 15.52 L 6.56 15.52 C 6.747 15.52 6.84 15.427 6.84 15.24 L 6.84 13.84 C 6.84 13.48 6.867 13.17 6.92 12.91 C 6.973 12.65 7.077 12.43 7.23 12.25 C 7.377 12.077 7.597 11.947 7.89 11.86 C 8.177 11.78 8.553 11.74 9.02 11.74 C 10.773 11.74 12.037 11.217 12.81 10.17 C 13.59 9.123 13.98 7.713 13.98 5.94 C 13.98 5.233 13.887 4.523 13.7 3.81 C 13.513 3.103 13.223 2.47 12.83 1.91 C 12.437 1.35 11.947 0.893 11.36 0.54 C 10.773 0.18 10.077 0 9.27 0 L 0.28 0 C 0.093 0 0 0.093 0 0.28 L 0 3.36 C 0 3.547 0.093 3.64 0.28 3.64 L 8.38 3.64 C 8.693 3.64 8.953 3.717 9.16 3.87 C 9.367 4.017 9.527 4.203 9.64 4.43 C 9.747 4.65 9.823 4.883 9.87 5.13 C 9.917 5.37 9.94 5.583 9.94 5.77 C 9.94 6.483 9.823 7.027 9.59 7.4 C 9.357 7.773 8.85 7.96 8.07 7.96 C 7.157 7.96 6.367 8.113 5.7 8.42 C 5.04 8.727 4.49 9.147 4.05 9.68 C 3.61 10.213 3.287 10.833 3.08 11.54 C 2.88 12.247 2.78 13.013 2.78 13.84 Z M 6.84 19.8 L 6.84 16.55 C 6.84 16.363 6.747 16.27 6.56 16.27 L 3.06 16.27 C 2.873 16.27 2.78 16.363 2.78 16.55 L 2.78 19.8 C 2.78 19.987 2.873 20.08 3.06 20.08 L 6.56 20.08 C 6.747 20.08 6.84 19.987 6.84 19.8 Z" style="fill: rgb(51, 51, 51); white-space: pre;"/>
</svg>