<svg viewBox="320.472 183.608 92.769 95.939" width="92.769" height="95.939" xmlns="http://www.w3.org/2000/svg">
  <defs>
    <radialGradient id="gradient-3" gradientUnits="userSpaceOnUse" cx="346.697" cy="234.513" r="25.866" gradientTransform="matrix(1.099819, 0.033386, -0.035124, 1.157087, -26.242854, -48.022282)" spreadMethod="pad">
      <stop offset="0" style="stop-color: rgb(133, 143, 61);"></stop>
      <stop offset="1" style="stop-color: rgb(53, 53, 14);"></stop>
    </radialGradient>
    <radialGradient id="gradient-7" gradientUnits="userSpaceOnUse" cx="386.13" cy="209.335" r="25.212" gradientTransform="matrix(0.705632, 0.854206, -1.314354, 1.085744, 388.80466, -347.784164)">
      <stop offset="0" style="stop-color: rgb(133, 143, 61);"></stop>
      <stop offset="1" style="stop-color: rgb(53, 53, 14);"></stop>
    </radialGradient>
    <radialGradient id="gradient-8" gradientUnits="userSpaceOnUse" cx="377.023" cy="262.971" r="32.416" gradientTransform="matrix(0.918794, -0.374392, 0.377356, 0.926068, -68.617117, 160.596072)">
      <stop offset="0" style="stop-color: rgb(133, 143, 61);"></stop>
      <stop offset="1" style="stop-color: rgb(53, 53, 14);"></stop>
    </radialGradient>
  </defs>
  <path d="M 368 234 C 368 246.15 358.15 256 346 256 C 333.85 256 324 246.15 324 234 C 324 221.85 333.85 212 346 212 C 358.15 212 368 221.85 368 234 Z M 332.169 213.059 C 333.37 212.926 334.104 213.259 334.37 214.06 C 335.038 214.727 335.504 215.661 335.771 216.861 C 336.839 216.861 337.639 217.062 338.173 217.462 C 338.573 217.862 338.706 218.662 338.573 219.863 C 338.306 219.997 338.106 220.263 337.973 220.664 C 337.172 221.197 336.038 221.331 334.571 221.064 C 333.865 220.963 333.312 220.748 332.911 220.419 C 332.934 220.453 332.956 220.487 332.978 220.522 C 333.354 220.899 333.449 221.511 333.26 222.359 C 333.072 222.736 332.836 223.066 332.554 223.348 C 332.083 223.725 331.423 223.819 330.575 223.631 C 329.068 222.689 327.702 221.605 326.478 220.381 C 326.101 219.91 325.959 219.297 326.054 218.544 C 326.43 218.167 326.619 217.743 326.619 217.272 C 326.901 216.989 327.372 216.801 328.032 216.707 C 328.974 216.707 329.586 217.037 329.869 217.696 C 329.869 218.073 330.057 218.261 330.434 218.261 C 330.784 218.42 331.113 218.612 331.421 218.836 C 330.761 217.788 330.477 216.396 330.568 214.66 C 330.702 214.126 330.968 213.726 331.369 213.459 C 331.769 213.459 332.036 213.326 332.169 213.059 Z M 340.344 210.073 C 341.544 209.94 342.278 210.273 342.545 211.074 C 342.545 213.075 342.812 214.876 343.345 216.477 C 343.212 217.144 342.878 217.611 342.345 217.878 C 341.945 218.144 341.478 218.211 340.944 218.078 C 340.143 217.944 339.61 217.611 339.343 217.077 C 338.542 215.743 338.342 213.875 338.743 211.474 C 339.009 211.207 339.276 210.873 339.543 210.473 C 339.943 210.473 340.21 210.34 340.344 210.073 Z M 346.021 208.253 C 347.622 208.12 348.623 208.587 349.023 209.654 C 349.29 210.054 349.356 210.721 349.223 211.655 C 349.223 213.79 348.756 215.457 347.822 216.658 C 347.422 216.925 346.955 217.058 346.421 217.058 C 345.621 216.925 345.087 216.658 344.82 216.258 C 344.02 215.191 343.887 213.523 344.42 211.255 C 344.687 211.122 344.687 210.988 344.42 210.855 C 344.42 209.654 344.82 208.853 345.621 208.453 C 345.754 208.453 345.888 208.387 346.021 208.253 Z M 354.806 210.311 C 355.74 210.311 356.407 210.644 356.807 211.311 C 357.074 211.578 357.208 212.112 357.208 212.912 C 356.674 214.246 355.94 215.38 355.006 216.314 C 354.606 216.581 354.072 216.648 353.405 216.514 C 352.872 216.381 352.471 216.181 352.205 215.914 C 351.804 215.38 351.671 214.647 351.804 213.713 C 352.338 212.379 353.138 211.311 354.206 210.511 C 354.473 210.644 354.673 210.577 354.806 210.311 Z M 359.894 212.451 C 360.962 212.318 361.695 212.584 362.096 213.251 C 362.496 213.518 362.629 214.185 362.496 215.253 C 362.229 215.92 361.829 216.52 361.295 217.054 C 360.761 218.254 359.561 218.721 357.693 218.455 C 357.426 218.054 357.159 217.921 356.893 218.054 C 356.626 217.654 356.426 217.12 356.292 216.453 C 356.426 215.119 357.026 214.252 358.093 213.852 C 358.36 213.852 358.493 213.785 358.493 213.652 C 358.493 213.118 358.694 212.851 359.094 212.851 C 359.494 212.851 359.761 212.718 359.894 212.451 Z M 363.329 215.987 C 364.663 215.721 365.53 215.854 365.931 216.388 C 366.331 216.788 366.531 217.388 366.531 218.189 C 366.264 219.389 365.664 220.257 364.73 220.79 C 364.063 220.924 363.596 221.257 363.329 221.791 C 363.329 222.058 363.262 222.191 363.129 222.191 C 362.729 222.458 362.195 222.591 361.528 222.591 C 360.861 222.458 360.394 222.258 360.127 221.991 C 359.594 221.591 359.46 220.857 359.727 219.79 C 359.994 218.989 360.461 218.389 361.128 217.989 C 361.928 217.989 362.329 217.655 362.329 216.988 C 362.329 216.588 362.462 216.388 362.729 216.388 C 362.996 216.388 363.196 216.254 363.329 215.987 Z M 367.853 221.772 C 368.653 221.906 369.254 222.306 369.654 222.973 C 369.921 223.24 369.988 223.773 369.854 224.574 C 369.721 224.974 369.521 225.308 369.254 225.574 C 368.453 226.909 366.852 227.375 364.451 226.975 C 364.184 226.708 363.917 226.575 363.65 226.575 C 363.25 226.175 363.05 225.574 363.05 224.774 C 363.184 224.107 363.45 223.64 363.851 223.373 C 365.318 223.106 366.652 222.573 367.853 221.772 Z M 369.602 227.658 C 370.936 227.525 371.736 227.925 372.003 228.859 C 372.137 229.126 372.203 229.526 372.203 230.06 C 372.07 230.727 371.803 231.194 371.403 231.461 C 370.602 232.395 369.268 232.795 367.4 232.661 C 365.666 232.661 364.399 232.261 363.598 231.461 C 363.198 231.06 363.064 230.46 363.198 229.66 C 363.331 228.993 363.665 228.526 364.198 228.259 C 364.999 227.725 366.333 227.658 368.201 228.059 C 368.201 228.192 368.334 228.259 368.601 228.259 C 368.734 227.992 369.068 227.792 369.602 227.658 Z M 366.228 235.961 C 368.496 235.694 370.163 235.894 371.231 236.561 C 371.631 236.962 371.831 237.562 371.831 238.363 C 371.698 239.03 371.364 239.563 370.831 239.963 C 370.023 240.412 369.005 240.589 367.775 240.495 C 368.801 240.759 369.584 241.295 370.124 242.105 C 370.658 242.372 370.791 243.106 370.524 244.307 C 370.257 244.84 369.924 245.241 369.523 245.507 C 368.856 245.507 368.389 245.574 368.123 245.708 C 367.322 245.574 366.722 245.307 366.322 244.907 C 366.322 244.507 366.255 244.307 366.121 244.307 C 365.454 244.307 365.054 244.173 364.921 243.906 C 364.387 243.506 364.254 242.772 364.521 241.705 C 364.654 241.305 364.921 240.971 365.321 240.705 C 365.721 240.705 365.988 240.571 366.121 240.304 C 366.244 240.304 366.365 240.307 366.484 240.312 C 366.27 240.269 366.052 240.22 365.828 240.164 C 365.561 239.897 365.227 239.763 364.827 239.763 C 364.293 239.363 364.093 238.696 364.227 237.762 C 364.36 237.095 364.694 236.628 365.227 236.361 C 365.627 236.361 365.961 236.228 366.228 235.961 Z M 361.252 243.784 C 362.319 243.917 363.12 244.317 363.654 244.984 C 363.787 244.584 364.321 244.518 365.255 244.784 C 365.788 245.051 366.188 245.451 366.455 245.985 C 366.455 246.385 366.522 246.786 366.655 247.186 C 366.389 248.52 365.855 249.521 365.054 250.188 C 364.654 250.454 364.054 250.521 363.253 250.388 C 362.586 250.254 362.119 249.987 361.853 249.587 C 361.853 248.52 361.452 247.986 360.652 247.986 C 360.385 247.719 360.051 247.586 359.651 247.586 C 359.251 247.186 359.051 246.585 359.051 245.785 C 359.184 244.984 359.518 244.451 360.051 244.184 C 360.585 244.184 360.985 244.051 361.252 243.784 Z M 354.661 245.202 C 355.861 244.935 356.662 245.202 357.062 246.002 C 357.462 246.536 357.662 247.403 357.662 248.604 C 358.863 250.338 360.197 252.006 361.665 253.607 C 361.932 253.874 362.065 254.407 362.065 255.208 C 361.932 255.875 361.598 256.342 361.065 256.609 C 360.664 256.875 360.131 256.942 359.464 256.809 C 358.663 256.542 358.063 256.142 357.662 255.608 C 354.861 254.007 353.393 251.139 353.26 247.003 C 353.66 246.603 353.86 246.136 353.86 245.602 C 354.127 245.602 354.394 245.469 354.661 245.202 Z M 348.681 242.394 C 350.015 242.127 350.883 242.461 351.283 243.394 C 352.217 247.397 352.617 252 352.484 257.203 C 352.35 257.87 352.017 258.337 351.483 258.604 C 351.083 258.87 350.616 258.937 350.082 258.804 C 349.282 258.67 348.748 258.337 348.481 257.803 C 348.481 252.867 348.081 248.397 347.281 244.395 C 347.414 243.728 347.614 243.194 347.881 242.794 C 348.148 242.794 348.415 242.661 348.681 242.394 Z M 341.37 245.774 C 342.304 245.774 342.904 246.174 343.171 246.975 C 343.438 247.242 343.505 247.842 343.371 248.776 C 342.037 251.177 341.303 254.113 341.17 257.581 C 340.77 257.982 340.036 258.115 338.969 257.982 C 338.435 257.848 338.035 257.581 337.768 257.181 C 337.234 256.114 337.167 254.58 337.568 252.578 C 338.101 250.177 338.835 248.109 339.769 246.375 C 340.169 246.108 340.703 245.908 341.37 245.774 Z M 340.487 233.983 C 341.954 233.716 342.821 234.05 343.088 234.983 C 343.355 235.25 343.422 235.851 343.288 236.785 C 342.088 238.385 340.753 239.853 339.286 241.187 C 337.685 241.187 336.884 241.921 336.884 243.388 L 336.884 243.589 L 333.883 246.59 C 333.883 246.724 333.883 246.791 333.883 246.791 C 333.482 246.657 333.349 246.791 333.482 247.191 C 331.881 248.391 330.681 249.926 329.88 251.793 C 329.48 252.194 328.88 252.394 328.079 252.394 C 327.279 252.26 326.745 251.994 326.478 251.593 C 326.211 251.06 326.078 250.526 326.078 249.992 C 326.612 248.258 327.546 246.924 328.88 245.99 C 329.413 245.99 329.68 245.79 329.68 245.39 C 330.881 242.588 332.749 240.453 335.283 238.986 L 335.484 238.986 L 338.686 235.784 C 338.552 235.384 338.686 235.25 339.086 235.384 C 339.353 235.25 339.419 235.05 339.286 234.783 C 339.686 234.917 339.953 234.783 340.086 234.383 Z M 327.11 241.599 C 327.957 241.599 328.523 241.928 328.805 242.588 C 329.182 242.87 329.276 243.483 329.088 244.425 C 328.899 244.99 328.57 245.414 328.099 245.697 C 327.722 245.885 327.251 245.979 326.686 245.979 C 325.744 245.979 325.131 245.697 324.849 245.131 C 324.566 244.755 324.472 244.142 324.566 243.294 C 324.754 242.823 325.037 242.447 325.414 242.164 C 325.791 241.787 326.356 241.599 327.11 241.599 Z M 325.453 235.651 C 326.395 235.651 327.007 235.981 327.29 236.64 C 327.666 236.923 327.761 237.535 327.572 238.477 C 327.384 238.948 327.101 239.325 326.724 239.608 C 325.594 240.173 324.039 240.314 322.061 240.032 C 321.496 239.843 321.072 239.561 320.789 239.184 C 320.507 238.807 320.413 238.289 320.507 237.629 C 320.695 236.97 321.025 236.499 321.496 236.216 C 322.438 235.745 323.757 235.557 325.453 235.651 Z M 323.329 226.183 C 327.945 225.901 331.524 226.701 334.068 228.585 C 334.256 228.868 334.35 229.292 334.35 229.857 C 334.256 230.611 333.926 231.129 333.361 231.411 C 332.796 231.317 332.466 231.411 332.372 231.694 C 329.829 230.564 326.626 230.093 322.763 230.281 C 322.387 230.093 322.057 229.904 321.774 229.716 C 321.397 229.339 321.256 228.727 321.35 227.879 C 321.444 227.314 321.727 226.89 322.198 226.607 C 322.669 226.607 323.046 226.466 323.329 226.183 Z" style="fill: url(#gradient-3);"></path>
  <path stroke="rgb(255,0,0)" stroke-width="0" opacity="0.9882352941176471" d="M 378.584 190.911 L 378.584 191.052 L 379.128 191.557 C 379.297 191.384 379.476 191.222 379.664 191.071 C 379.853 191.071 380.041 190.977 380.229 190.789 C 381.454 190.6 382.208 190.93 382.49 191.778 C 382.773 192.155 382.867 192.72 382.773 193.474 C 382.654 193.759 382.53 194.034 382.399 194.301 L 382.4 194.302 C 382.511 194.474 382.622 194.646 382.734 194.817 C 383.104 194.522 383.617 194.334 384.272 194.251 C 385.59 194.063 386.438 194.393 386.815 195.241 C 387.192 195.523 387.286 196.135 387.098 197.077 C 386.909 197.454 386.674 197.784 386.391 198.067 C 386.112 198.346 385.776 198.566 385.381 198.729 C 386.593 200.456 387.841 202.148 389.124 203.804 C 389.154 203.781 389.184 203.758 389.214 203.735 C 390.533 203.546 391.475 203.688 392.041 204.159 C 392.512 204.536 392.7 205.242 392.606 206.278 C 392.518 206.718 392.306 207.076 391.971 207.352 C 392.323 207.776 392.677 208.197 393.034 208.615 C 393.073 208.591 393.112 208.568 393.151 208.545 C 393.716 208.545 394.093 208.31 394.282 207.839 C 395.506 207.65 396.307 207.933 396.684 208.687 C 397.061 209.063 397.155 209.723 396.966 210.665 C 396.778 211.042 396.495 211.371 396.119 211.654 C 395.965 211.654 395.853 211.682 395.783 211.738 C 396.436 212.455 397.095 213.165 397.763 213.868 C 398.918 213.296 400.27 212.881 401.817 212.623 C 403.042 212.529 403.89 212.859 404.361 213.612 C 404.643 213.989 404.737 214.554 404.643 215.308 C 404.549 215.779 404.314 216.156 403.937 216.439 C 403.499 216.508 403.075 216.588 402.665 216.68 C 403.527 216.947 404.449 217.165 405.432 217.335 C 406.374 217.712 407.128 218.277 407.693 219.03 C 407.876 219.213 408.043 219.414 408.194 219.632 C 408.761 219.329 409.312 219.004 409.849 218.655 C 411.357 218.372 412.346 218.655 412.817 219.503 C 413.099 219.785 413.241 220.256 413.241 220.916 C 413.152 221.618 412.901 222.116 412.486 222.409 C 412.482 222.517 412.473 222.63 412.46 222.749 C 412.436 222.821 412.41 222.891 412.383 222.959 C 412.586 223.12 412.756 223.315 412.893 223.543 C 413.175 223.826 413.27 224.344 413.175 225.097 C 412.987 225.663 412.704 226.087 412.328 226.369 C 411.471 226.859 410.376 227.07 409.042 227.004 C 409.045 227.176 409.037 227.361 409.019 227.558 C 408.643 227.746 408.454 228.076 408.454 228.547 C 407.884 228.954 407.067 229.151 406.003 229.135 C 405.806 229.663 405.504 230.05 405.096 230.294 C 404.72 230.483 404.343 230.577 403.966 230.577 C 403.118 230.483 402.553 230.2 402.27 229.729 C 402.155 229.531 402.057 229.317 401.976 229.085 C 401.858 229.079 401.738 229.072 401.617 229.063 C 401.146 228.592 400.392 228.404 399.356 228.498 C 399.086 228.333 398.812 228.172 398.536 228.015 C 398.514 228.091 398.489 228.165 398.46 228.237 C 398.272 228.614 398.036 228.896 397.754 229.085 C 397.377 229.367 396.812 229.462 396.058 229.367 C 395.587 229.273 395.21 229.085 394.927 228.802 C 394.393 228.179 394.238 227.261 394.462 226.047 C 394.39 226.018 394.317 225.989 394.244 225.96 C 393.902 226.389 393.535 226.798 393.145 227.188 C 392.768 227.471 392.25 227.565 391.591 227.471 C 390.931 227.282 390.46 227 390.178 226.623 C 389.895 226.246 389.801 225.681 389.895 224.927 C 390.011 224.792 390.124 224.657 390.234 224.52 C 389.723 224.332 389.336 224.062 389.071 223.71 C 388.84 223.325 388.735 222.813 388.755 222.176 C 388.348 221.49 387.912 220.832 387.447 220.202 C 387.078 220.458 386.623 220.541 386.081 220.451 C 385.422 220.357 384.95 220.121 384.668 219.744 C 384.197 219.273 384.056 218.52 384.244 217.483 C 384.301 217.313 384.36 217.146 384.422 216.982 C 383.383 215.985 382.384 214.951 381.426 213.879 C 380.729 213.773 380.246 213.495 379.977 213.046 C 379.766 212.764 379.66 212.352 379.659 211.808 C 379.555 211.68 379.452 211.552 379.349 211.423 C 379.144 211.442 378.919 211.436 378.674 211.405 C 377.92 211.217 377.402 210.887 377.12 210.416 C 376.854 209.799 376.797 209.056 376.946 208.189 C 376.796 208.176 376.638 208.153 376.474 208.12 C 376.003 207.932 375.627 207.649 375.344 207.272 C 375.055 206.839 374.932 206.269 374.975 205.56 C 374.646 205.656 374.238 205.674 373.751 205.613 C 373.28 205.519 372.903 205.331 372.62 205.048 C 372.439 204.841 372.29 204.606 372.174 204.343 C 371.833 204.668 371.474 204.975 371.098 205.265 C 370.721 205.736 370.061 205.877 369.119 205.689 C 368.46 205.595 368.036 205.312 367.848 204.841 C 367.565 204.464 367.471 203.946 367.565 203.287 C 367.753 202.533 368.13 202.015 368.695 201.732 C 368.884 201.732 368.978 201.685 368.978 201.591 C 368.978 201.309 369.072 201.167 369.261 201.167 C 369.698 201.167 369.965 201.027 370.064 200.746 C 369.065 200.869 367.945 200.858 366.703 200.715 C 366.044 200.527 365.573 200.244 365.29 199.868 C 365.008 199.491 364.913 198.925 365.008 198.172 C 365.196 197.607 365.526 197.183 365.997 196.9 C 366.409 196.92 366.809 196.925 367.197 196.916 C 366.894 196.504 366.643 196.044 366.444 195.534 C 365.976 195.523 365.473 195.477 364.936 195.396 C 363.994 195.302 363.382 194.972 363.099 194.407 C 362.911 194.03 362.817 193.653 362.817 193.277 C 362.911 192.335 363.288 191.722 363.947 191.44 C 364.041 191.44 364.136 191.393 364.23 191.298 C 364.893 191.138 365.503 191.034 366.061 190.985 C 366.068 190.955 366.076 190.926 366.083 190.896 C 365.468 190.362 364.811 189.936 364.11 189.617 C 363.639 189.24 363.498 188.534 363.686 187.497 C 363.875 187.026 364.157 186.65 364.534 186.367 C 364.722 186.367 364.911 186.273 365.099 186.084 C 366.676 185.997 367.763 186.438 368.363 187.41 C 368.379 187.399 368.394 187.388 368.41 187.378 C 368.737 187.133 369.109 186.923 369.525 186.749 C 369.524 186.281 369.536 185.805 369.56 185.319 C 369.654 184.754 369.937 184.33 370.408 184.048 C 370.69 183.953 370.973 183.812 371.255 183.624 C 372.292 183.529 372.998 183.859 373.375 184.613 C 373.689 185.163 373.905 185.819 374.023 186.581 C 374.16 186.621 374.293 186.665 374.422 186.712 C 374.67 186.22 375.014 185.809 375.454 185.479 C 375.831 185.479 376.114 185.385 376.302 185.196 C 377.056 185.196 377.621 185.385 377.998 185.761 C 378.469 186.138 378.657 186.845 378.563 187.881 C 378.398 188.706 378.053 189.387 377.526 189.923 C 378.051 189.95 378.404 190.279 378.584 190.911 Z" style="fill-opacity: 1; fill-rule: nonzero; stroke: none; stroke-dasharray: none; stroke-dashoffset: 0px; stroke-linecap: butt; stroke-linejoin: miter; stroke-miterlimit: 4; stroke-opacity: 1; stroke-width: 1px; paint-order: fill; vector-effect: none; opacity: 1; mix-blend-mode: normal; isolation: auto; fill: url(#gradient-7);"></path>
  <path stroke="rgb(255,0,0)" stroke-width="0" opacity="0.9882352941176471" d="M 406.271 249.884 C 406.962 250.517 407.424 251.431 407.658 252.627 C 408.296 252.783 408.764 253.109 409.062 253.606 C 409.439 253.888 409.533 254.501 409.344 255.443 C 409.156 255.82 408.921 256.149 408.638 256.432 C 408.243 256.679 407.784 256.835 407.261 256.901 C 406.871 257.723 406.352 258.398 405.706 258.927 C 403.874 260.148 401.763 261.03 399.374 261.571 C 399.437 261.893 399.449 262.276 399.408 262.718 C 399.032 262.907 398.843 263.236 398.843 263.707 C 398.372 264.084 397.713 264.273 396.865 264.273 C 396.111 264.179 395.546 263.943 395.169 263.566 C 395.109 263.506 395.053 263.441 395.001 263.37 C 391.188 265.434 387.219 267.345 383.097 269.101 C 381.967 269.666 380.554 269.902 378.858 269.808 C 377.351 270.938 375.749 271.927 374.054 272.775 C 369.344 273.435 365.387 274.848 362.184 277.014 C 360.393 277.731 358.318 278.145 355.96 278.256 C 355.752 278.66 355.464 278.984 355.097 279.229 C 354.72 279.512 354.155 279.606 353.401 279.512 C 352.742 279.323 352.271 278.994 351.988 278.523 C 351.985 278.515 351.982 278.507 351.978 278.499 C 350.959 278.781 349.691 278.814 348.173 278.597 C 347.702 278.409 347.325 278.173 347.042 277.89 C 346.738 277.549 346.527 277.13 346.406 276.636 C 346.172 276.487 345.979 276.311 345.826 276.108 C 345.366 275.096 345.266 273.77 345.524 272.128 C 345.313 271.99 345.114 271.843 344.925 271.689 C 344.643 271.312 344.548 270.699 344.643 269.852 C 344.831 269.381 345.114 269.004 345.49 268.721 C 345.679 268.438 346.056 268.297 346.621 268.297 C 347.068 268.316 347.492 268.362 347.891 268.434 C 348.107 268.161 348.349 267.912 348.619 267.688 C 350.355 266.267 352.82 265.541 356.012 265.509 C 356.238 264.614 356.615 263.902 357.145 263.372 C 357.428 262.995 357.946 262.807 358.7 262.807 C 360.019 262.618 360.961 262.76 361.526 263.231 C 361.628 263.313 361.717 263.412 361.793 263.53 C 362.941 263.038 364.152 262.61 365.427 262.246 C 365.441 261.897 365.478 261.529 365.536 261.14 C 365.724 260.763 365.96 260.433 366.242 260.151 C 366.619 260.151 366.855 260.009 366.949 259.727 C 368.174 259.538 368.974 259.868 369.351 260.716 C 369.439 260.892 369.517 261.081 369.585 261.283 C 370.894 260.174 372.477 259.247 374.336 258.503 C 375.467 257.844 376.927 257.514 378.717 257.514 C 383.615 255.63 388.184 253.416 392.423 250.873 C 393.637 250.328 394.917 249.84 396.261 249.407 C 396.45 248.752 396.779 248.284 397.248 248.003 C 397.531 248.003 397.719 247.908 397.813 247.72 C 398.794 247.645 399.503 247.872 399.94 248.4 C 400.28 248.322 400.624 248.247 400.972 248.175 C 401.223 247.628 401.586 247.176 402.063 246.818 C 402.534 246.818 402.911 246.677 403.194 246.394 C 403.947 246.394 404.513 246.677 404.889 247.242 C 405.32 247.587 405.475 248.207 405.354 249.105 C 405.695 249.329 406.001 249.589 406.271 249.884 Z" style="fill-opacity: 1; fill-rule: nonzero; stroke: none; stroke-dasharray: none; stroke-dashoffset: 0px; stroke-linecap: butt; stroke-linejoin: miter; stroke-miterlimit: 4; stroke-opacity: 1; stroke-width: 1px; paint-order: fill; vector-effect: none; opacity: 1; mix-blend-mode: normal; isolation: auto; fill: url(#gradient-8);"></path>
</svg>
