<svg viewBox="656 -600 146 146" width="146" height="146" xmlns="http://www.w3.org/2000/svg" xmlns:bx="https://boxy-svg.com">
  <defs></defs>
  <g>
    <circle style="stroke: rgb(248, 199, 83); paint-order: stroke; fill: rgb(255, 239, 0); stroke-width: 5px;" cx="729" cy="-527" r="16"></circle>
    <path style="fill: rgb(255, 239, 0); stroke: rgb(248, 199, 83); stroke-width: 2px;" d="M 723 -547.5 C 723 -547.5 729.462 -599.5 729.462 -599.5 C 729.462 -599.5 735 -547.5 735 -547.5 C 731 -548.7 727 -548.7 723 -547.5 Z" bx:origin="0.461538 0.509434"></path>
    <path style="fill: rgb(255, 239, 0); stroke: rgb(248, 199, 83); stroke-width: 2px;" d="M 723.878 -455.481 C 723.878 -455.481 730.34 -507.481 730.34 -507.481 C 730.34 -507.481 735.878 -455.481 735.878 -455.481 C 731.878 -456.681 727.878 -456.681 723.878 -455.481 Z" transform="matrix(-1, 0, 0, -1, 1458.832893, -961.980839)" bx:origin="0.461538 0.509434"></path>
    <path style="fill: rgb(255, 239, 0); stroke: rgb(248, 199, 83); stroke-width: 2px;" d="M 769.374 -501.894 C 769.374 -501.894 775.836 -553.894 775.836 -553.894 C 775.836 -553.894 781.374 -501.894 781.374 -501.894 C 777.374 -503.094 773.374 -503.094 769.374 -501.894 Z" transform="matrix(0, 1, -1, 0, 247.50905, -1302.315909)" bx:origin="0.461538 0.509434"></path>
    <path style="fill: rgb(255, 239, 0); stroke: rgb(248, 199, 83); stroke-width: 2px;" d="M 677.355 -501.015 C 677.355 -501.015 683.817 -553.015 683.817 -553.015 C 683.817 -553.015 689.355 -501.015 689.355 -501.015 C 685.355 -502.215 681.355 -502.215 677.355 -501.015 Z" transform="matrix(0, -1, 1, 0, 1209.417883, 156.36899)" bx:origin="0.461538 0.509434"></path>
    <path style="fill: rgb(255, 239, 0); stroke: rgb(248, 199, 83); stroke-width: 2px;" d="M 755.707 -534.335 C 755.707 -534.335 762.169 -586.335 762.169 -586.335 C 762.169 -586.335 767.707 -534.335 767.707 -534.335 C 763.707 -535.535 759.707 -535.535 755.707 -534.335 Z" transform="matrix(0.707107, 0.707107, -0.707107, 0.707107, -172.906187, -702.256447)" bx:origin="0.461538 0.509434"></path>
    <path style="fill: rgb(255, 239, 0); stroke: rgb(248, 199, 83); stroke-width: 2px;" d="M 691.261 -468.646 C 691.261 -468.646 697.723 -520.646 697.723 -520.646 C 697.723 -520.646 703.261 -468.646 703.261 -468.646 C 699.261 -469.846 695.261 -469.846 691.261 -468.646 Z" transform="matrix(-0.707107, -0.707107, 0.707107, -0.707107, 1538.931707, -350.864471)" bx:origin="0.461538 0.509434"></path>
    <path style="fill: rgb(255, 239, 0); stroke: rgb(248, 199, 83); stroke-width: 2px;" d="M 690.64 -533.714 C 690.64 -533.714 697.102 -585.714 697.102 -585.714 C 697.102 -585.714 702.64 -533.714 702.64 -533.714 C 698.64 -534.914 694.64 -534.914 690.64 -533.714 Z" transform="matrix(0.707107, -0.707107, 0.707107, 0.707107, 599.336627, 328.47977)" bx:origin="0.461538 0.509434"></path>
    <path style="fill: rgb(255, 239, 0); stroke: rgb(248, 199, 83); stroke-width: 2px;" d="M 756.328 -469.267 C 756.328 -469.267 762.79 -521.267 762.79 -521.267 C 762.79 -521.267 768.328 -469.267 768.328 -469.267 C 764.328 -470.467 760.328 -470.467 756.328 -469.267 Z" transform="matrix(-0.707107, 0.707107, -0.707107, -0.707107, 950.727619, -1383.357164)" bx:origin="0.461538 0.509434"></path>
  </g>
</svg>
