<?xml version="1.0" encoding="utf-8"?>
<svg viewBox="0 0 108.6 59.8" xmlns="http://www.w3.org/2000/svg">
  <polygon style="fill: rgb(220, 154, 30);" points="1.881 55.417 6.572 36.448 23.423 43.502 20.944 56.105"/>
  <polygon style="fill: rgb(236, 161, 38);" points="22.988 43.586 5.845 36.289 16.733 21.101 28.768 33.379"/>
  <polygon style="fill: rgb(251, 178, 22);" points="28.625 33.338 16.589 21.244 31.253 10.628 38.037 26.038"/>
  <polygon style="fill: rgb(237, 204, 27);" points="37.916 26.285 30.935 10.334 46.295 5.767 48.553 22.434"/>
  <polygon style="fill: rgb(252, 208, 0);" points="48.408 22.01 46.163 5.078 62.541 5.373 60.108 22.231"/>
  <polygon style="fill: rgb(255, 248, 42);" points="59.874 22.19 62.503 4.574 79.139 11.085 70.678 26.077 70.678 26.077"/>
  <polygon style="fill: rgb(220, 223, 0);" points="70.659 25.831 79.077 10.981 92.93 21.749 80.161 33.229"/>
  <polygon style="fill: rgb(150, 195, 0);" points="79.903 33.42 93.22 21.412 102.698 36.462 86.062 43.216"/>
  <polygon style="fill: rgb(59, 167, 51);" points="85.951 43.198 103.206 36.242 106.705 56.001 88.203 55.797"/>
  <path style="stroke: rgb(0, 0, 0); fill: rgb(255, 255, 255);" d="M 0.6 56.932 C 0.641 41.174 7.484 25.655 21.81 14.775 C 54.731 -10.228 102.373 9.784 107.565 50.796 C 107.732 52.116 107.886 55.492 107.986 56.892 C 104.486 56.892 87.286 56.892 87.284 56.933 C 87.386 50.992 86.086 45.092 82.986 39.692 C 70.286 17.792 38.686 17.792 26.086 39.692 C 22.786 45.392 21.486 51.092 21.639 56.933 C 16.486 56.892 0.6 56.932 0.6 56.932 Z M 105.686 54.492 C 105.186 46.792 103.058 38.889 98.902 31.69 C 79.12 -2.574 29.664 -2.574 9.882 31.69 C 5.637 39.043 3.442 46.79 2.986 54.492 C 2.986 54.492 10.686 54.492 19.486 54.492 C 19.786 49.292 21.286 43.792 23.986 38.692 C 37.886 14.992 71.186 14.992 84.886 38.692 C 87.586 43.492 89.186 49.192 89.586 54.492 C 91.686 54.492 105.686 54.492 105.686 54.492 Z"/>
  <path style="fill: rgb(255, 255, 255); stroke-width: 1.5px; stroke: rgb(0, 0, 0);" d="M 26.379 0.833 L 44.34 56.507 C 44.34 59.782 63.425 59.782 63.425 56.507 L 81.423 0.8 L 70.159 0.833 L 54.725 49.412 C 54.444 49.684 53.32 49.684 53.04 49.412 L 37.605 0.833 L 26.379 0.833 Z"/>
</svg>