<svg viewBox="0 0 612.5 165" width="612.5" height="165px" xmlns="http://www.w3.org/2000/svg">
  <defs>
    <linearGradient id="gradient-0" gradientUnits="userSpaceOnUse" x1="84.75" y1="79" x2="84.75" y2="238" gradientTransform="matrix(1, 0, 0, 1, -65.500031, -76)">
      <stop offset="0" style="stop-color: rgb(85, 85, 85);"></stop>
      <stop offset="0.21" style="stop-color: rgb(221, 221, 221);"></stop>
      <stop offset="0.727" style="stop-color: rgb(85, 85, 85);"></stop>
      <stop offset="0.884" style="stop-color: rgb(221, 221, 221);"></stop>
      <stop offset="1" style="stop-color: rgb(85, 85, 85);"></stop>
    </linearGradient>
    <linearGradient id="gradient-1" gradientUnits="userSpaceOnUse" x1="84.75" y1="79" x2="84.75" y2="238" gradientTransform="matrix(1, 0, 0, 1, -47.500031, -76)">
      <stop offset="0" style="stop-color: rgb(230, 154, 0);"></stop>
      <stop offset="0.472" style="stop-color: rgb(246, 223, 0);"></stop>
      <stop offset="1" style="stop-color: rgb(230, 154, 0);"></stop>
    </linearGradient>
    <linearGradient id="gradient-3" gradientUnits="userSpaceOnUse" x1="415.723" y1="87" x2="415.723" y2="229" gradientTransform="matrix(1, 0, 0, 1, -84.500031, -76)">
      <stop offset="0" style="stop-color: rgb(102, 102, 102);"></stop>
      <stop offset="1" style="stop-color: rgb(255, 255, 255);"></stop>
    </linearGradient>
    <linearGradient id="gradient-2" gradientUnits="userSpaceOnUse" x1="415.723" y1="87" x2="415.723" y2="229" gradientTransform="matrix(0, 4.061534, -4.061534, 0, 969.090332, -1579.309448)">
      <stop offset="0" style="stop-color: rgb(255, 255, 255);"></stop>
      <stop offset="0.707" style="stop-color: rgb(187, 187, 187);"></stop>
      <stop offset="1" style="stop-color: rgb(52, 52, 52);"></stop>
    </linearGradient>
  </defs>
  <path style="stroke-width: 5px; stroke: rgb(51, 51, 51); fill: url(#gradient-0);" d="M 22.5 162 L 35.5 162 C 11.073 121 11.5 48 25.5 3 L 12.5 3 C -1.5 48 -1.5 121 22.5 162 Z"></path>
  <path style="stroke-width: 5px; fill: url(#gradient-1); stroke: rgb(234, 83, 32);" d="M 40.5 162 L 53.5 162 C 29.073 121 29.5 48 43.5 3 L 30.5 3 C 16.5 48 15.79 120.18 40.5 162 Z"></path>
  <path style="stroke-width: 5px; stroke: rgb(51, 51, 51); fill: none;" d="M 58.5 162 L 615.5 162 L 615.5 3 L 48.5 3 C 34.5 48 32.399 118.885 58.5 162 Z"></path>
  <path style="stroke: url(#gradient-2); stroke-width: 13px; fill: url(#gradient-3);" d="M 63.5 153 L 615.5 153 L 615.5 11 L 54.5 11 C 42.661 47.769 43.835 121.25 63.5 153 Z"></path>
</svg>
