<?xml version="1.0" encoding="iso-8859-1"?>
<!-- Generator: Adobe Illustrator 19.0.0, SVG Export Plug-In . SVG Version: 6.00 Build 0)  -->
<svg version="1.1" id="Capa_1" xmlns="http://www.w3.org/2000/svg" xmlns:xlink="http://www.w3.org/1999/xlink" x="0px" y="0px" viewBox="0 0 512 512" style="enable-background:new 0 0 512 512;" xml:space="preserve">
	<polygon style="fill:#012631;" points="271,467 246,467 256,512 271,512 "/>
	<rect x="241" y="467" style="fill:#014859;" width="15" height="45"/>
	<polygon style="fill:#819398;" points="150,232.99 30,293.089 30,227 0,227 0,392 256,392 "/>
	<polygon style="fill:#014859;" points="150,482 180,482 180,432 150,452 "/>
	<polygon style="fill:#ADBDC2;" points="211,139.496 150,232.99 150,452 256,452 256,139.496 "/>
	<polygon style="fill:#707F84;" points="482,227 482,293.089 362,232.99 256,392 512,392 512,227 "/>
	<polygon style="fill:#012631;" points="362,482 332,482 332,432 362,452 "/>
	<polygon style="fill:#92A7AD;" points="301,139.496 362,232.99 362,452 256,452 256,139.496 "/>
	<path style="fill:#012631;" d="M301,139.496v-30c0-34.414-11.825-68.116-33.297-94.898L256,0l-30,179.496L301,139.496z"/>
	<path style="fill:#014859;" d="M256,0l-11.703,14.598C222.825,41.38,211,75.082,211,109.496v30l45,40V0z"/>
	<polygon style="fill:#707F84;" points="301,139.496 256,139.496 236,310.748 256,482 301,482 "/>
	<rect x="211" y="139.5" style="fill:#819398;" width="45" height="342.5"/>
</svg>
