<svg viewBox="0 0 69 63" width="69px" height="63px" xmlns="http://www.w3.org/2000/svg" xmlns:bx="https://boxy-svg.com">
  <defs>
    <linearGradient id="gradient-1" gradientUnits="userSpaceOnUse" x1="16.949" y1="42.168" x2="16.949" y2="58.896" gradientTransform="matrix(0.507098, 0.507119, -0.507119, 0.507098, 31.857426, 20.570206)">
      <stop offset="0" style="stop-color: rgb(255, 162, 0);"></stop>
      <stop offset="1" style="stop-color: rgb(240, 129, 0);"></stop>
    </linearGradient>
    <linearGradient id="gradient-2" gradientUnits="userSpaceOnUse" x1="16.949" y1="42.168" x2="16.949" y2="58.896" gradientTransform="matrix(0.507098, 0.507119, -0.507119, 0.507098, 31.857506, 20.570081)">
      <stop offset="0" style="stop-color: rgb(255, 162, 0);"></stop>
      <stop offset="1" style="stop-color: rgb(240, 129, 0);"></stop>
    </linearGradient>
    <linearGradient id="gradient-3" gradientUnits="userSpaceOnUse" x1="16.949" y1="42.168" x2="16.949" y2="58.896" gradientTransform="matrix(0.507098, 0.507119, -0.507119, 0.507098, 31.857499, 20.570094)">
      <stop offset="0" style="stop-color: rgb(230, 81, 0);"></stop>
      <stop offset="1" style="stop-color: rgb(227, 67, 0);"></stop>
    </linearGradient>
    <linearGradient id="gradient-4" gradientUnits="userSpaceOnUse" x1="16.949" y1="42.168" x2="16.949" y2="58.896" gradientTransform="matrix(0.507098, 0.507119, -0.507119, 0.507098, 10.959533, -63.766115)">
      <stop offset="0" style="stop-color: rgb(230, 81, 0);"></stop>
      <stop offset="1" style="stop-color: rgb(227, 67, 0);"></stop>
    </linearGradient>
    <radialGradient id="gradient-5" gradientUnits="userSpaceOnUse" cx="34.712" cy="104.827" r="19.25" gradientTransform="matrix(1, 0, 0, 1, 0, 0)">
      <stop offset="0" style="stop-color: rgb(248, 148, 0);"></stop>
      <stop offset="1" style="stop-color: rgb(241, 79, 0);"></stop>
    </radialGradient>
    <radialGradient id="gradient-6" gradientUnits="userSpaceOnUse" cx="34.712" cy="104.827" r="19.25" gradientTransform="matrix(1.002597, 0, 0, -1.004171, 5.143427, 119.501076)">
      <stop offset="0" style="stop-color: rgb(248, 148, 0);"></stop>
      <stop offset="1" style="stop-color: rgb(241, 79, 0);"></stop>
    </radialGradient>
    <radialGradient id="gradient-7" gradientUnits="userSpaceOnUse" cx="34.374" cy="113.527" r="19.25" gradientTransform="matrix(1.163636, 0, 0, 0.608074, -35.610149, -64.27581)">
      <stop offset="0" style="stop-color: rgb(255, 190, 0);"></stop>
      <stop offset="1" style="stop-color: rgb(241, 120, 0);"></stop>
    </radialGradient>
    <radialGradient id="gradient-8" gradientUnits="userSpaceOnUse" cx="34.802" cy="102.187" r="19.25" gradientTransform="matrix(1.162338, 0, 0, 0.626286, -35.570267, -66.200859)">
      <stop offset="0" style="stop-color: rgb(242, 125, 0);"></stop>
      <stop offset="1" style="stop-color: rgb(236, 62, 0);"></stop>
    </radialGradient>
    <linearGradient id="gradient-0" gradientUnits="userSpaceOnUse" x1="69.5" y1="101" x2="69.5" y2="158" gradientTransform="matrix(1, 0, 0, 1, -34.999645, -97.999636)">
      <stop offset="0" style="stop-color: rgb(193, 82, 0);"></stop>
      <stop offset="1" style="stop-color: rgb(255, 222, 82);"></stop>
    </linearGradient>
    <radialGradient id="gradient-9" gradientUnits="userSpaceOnUse" cx="62.5" cy="129.5" r="22.5" gradientTransform="matrix(1, 0, 0, 1, -27.999645, -97.999636)">
      <stop offset="0" style="stop-color: rgb(244, 186, 0);"></stop>
      <stop offset="1" style="stop-color: rgb(239, 119, 0);"></stop>
    </radialGradient>
    <linearGradient id="gradient-10" gradientUnits="userSpaceOnUse" x1="69.5" y1="101" x2="69.5" y2="158" gradientTransform="matrix(1, 0, 0, 1, -37.499645, -100.499634)">
      <stop offset="0" style="stop-color: rgb(193, 82, 0);"></stop>
      <stop offset="1" style="stop-color: rgb(255, 222, 82);"></stop>
    </linearGradient>
  </defs>
  <path style="fill: none; stroke-width: 6px; stroke: rgb(8, 3, 0);" d="M 3 51.001 L 12 60.001 C 29 58.8 40 58.8 57 60.001 L 66 51.001 C 65 36.001 65 27.001 66 12.001 L 57 3.001 C 40 4.2 29 4.2 12 3.001 L 3 12.001 C 4 27.001 4 36.001 3 51.001 Z"></path>
  <path d="M 14.739 42.168 L 23.449 58.896 L 10.449 58.896 L 14.739 42.168 Z" style="fill: url(#gradient-1);" transform="matrix(-0.707092, 0.707122, -0.707122, -0.707092, 61.227268, 37.256176)" bx:shape="triangle 10.449 42.168 13 16.728 0.33 0 1@1370552f"></path>
  <path d="M 14.739 42.168 L 23.449 58.896 L 10.449 58.896 L 14.739 42.168 Z" style="fill: url(#gradient-2);" transform="matrix(0.707092, 0.707122, 0.707122, -0.707092, 7.79368, 37.256178)" bx:shape="triangle 10.449 42.168 13 16.728 0.33 0 1@1370552f"></path>
  <path d="M 14.739 42.168 L 23.449 58.896 L 10.449 58.896 L 14.739 42.168 Z" style="fill: url(#gradient-3);" transform="matrix(-0.707092, -0.707122, -0.707122, 0.707092, 61.227268, 25.764648)" bx:shape="triangle 10.449 42.168 13 16.728 0.33 0 1@1370552f"></path>
  <path d="M -6.159 -42.168 L 2.551 -25.44 L -10.449 -25.44 L -6.159 -42.168 Z" style="fill: url(#gradient-4);" transform="matrix(0.707092, -0.707122, 0.707122, 0.707092, 82.206345, 70.620529)" bx:shape="triangle -10.449 -42.168 13 16.728 0.33 0 1@d10a4f2d"></path>
  <path d="M 34.552 52.852 L 53.802 113.527 L 15.302 113.527 L 34.552 52.852 Z" style="fill: url(#gradient-5);" transform="matrix(0.000016, 1, -1, 0.000016, 116.826942, -3.052516)" bx:shape="triangle 15.302 52.852 38.5 60.675 0.5 0 1@2999ee63"></path>
  <path d="M 36.905 57.335 L 42.613 57.501 L 59.085 5.501 L 20.485 5.501 L 36.905 57.335 Z" style="fill: url(#gradient-6);" transform="matrix(-0.000016, 1, -1, -0.000016, 71.286636, -8.283496)"></path>
  <path d="M 4.596 -32.138 L 26.996 4.757 L -17.804 4.757 L 4.596 -32.138 Z" style="fill: url(#gradient-7);" transform="matrix(1, 0.000016, 0.000016, -1, 29.804514, 8.257101)" bx:shape="triangle -17.804 -32.138 44.8 36.895 0.5 0 1@f4717754"></path>
  <path d="M 4.59 -33.1 L 26.965 4.9 L -17.785 4.9 L 4.59 -33.1 Z" style="fill: url(#gradient-8);" transform="matrix(1, -0.000016, 0.000016, 1, 29.784882, 54.600235)" bx:shape="triangle -17.785 -33.1 44.75 38 0.5 0 1@6b7fdce8"></path>
  <path style="stroke: url(#gradient-0); fill: none;" d="M 3 51.001 L 12 60.001 C 29 58.8 40 58.8 57 60.001 L 66 51.001 C 65 36.001 65 27.001 66 12.001 L 57 3.001 C 40 4.2 29 4.2 12 3.001 L 3 12.001 C 4 27.001 4 36.001 3 51.001 Z"></path>
  <path style="fill: url(#gradient-9);" d="M 12 15.001 L 16.5 10.501 C 30 11.501 39 11.501 52.5 10.501 L 57 15.001 C 56 27.501 56 35.501 57 48.001 L 52.5 52.501 C 39 51.501 30 51.501 16.5 52.501 L 12 48.001 C 13 35.501 13 27.501 12 15.001 Z"></path>
</svg>
