<svg viewBox="0 0 98 90" width="98px" height="87" xmlns="http://www.w3.org/2000/svg">
  <g>
    <path d="M 10 88 L 24 88 L 21 30.5 L 32 24 L 32 7.5 L 21 1 L 21 18 L 13 18 L 13 1 L 1 7.5 L 1 24 L 13 30.5 L 10 88 Z" style="fill: rgb(87, 65, 51); stroke: rgb(58, 45, 52); stroke-width: 1.5px;"></path>
    <path style="fill: rgb(87, 65, 51); stroke: rgb(58, 45, 52); stroke-width: 1.5px;" d="M 63.5 26.013 L 61.5 88.013 L 75.5 88.013 L 72.5 26.013 L 77.7 26.013 C 77.539 19.456 84.429 15.027 91.121 17.413 C 93.871 18.394 95.062 20.301 96.5 23.013 C 97.995 20.206 93.5 10.013 84.5 10.013 L 58.4 10.013 C 55.449 9.899 54.539 10.529 54.552 12.42 L 54.6 15.013 L 53.5 15.013 C 53.5 11.913 52.4 10.013 48.4 10.013 L 40 10.013 L 40 25.113 L 50.5 25.013 C 52.5 25.013 53.5 24.113 53.5 22.013 L 54.5 22.013 C 54.5 26.013 56.5 26.013 60.5 26.013 L 63.5 26.013 Z"></path>
  </g>
</svg>
