<svg viewBox="77.017 13 115.527 114.259" width="111.527" height="111.259" xmlns="http://www.w3.org/2000/svg" xmlns:bx="https://boxy-svg.com">
  <defs>
    <linearGradient id="gradient-2" gradientUnits="userSpaceOnUse" x1="134.781" y1="13.823" x2="134.781" y2="125.082" gradientTransform="matrix(1, 0, 0, 1, 0, 0)">
      <stop offset="0" style="stop-color: rgb(255, 255, 255);"></stop>
      <stop offset="0.17" style="stop-color: rgb(255, 236, 10);"></stop>
      <stop offset="0.761" style="stop-color: rgb(255, 236, 10);"></stop>
      <stop offset="0.878" style="stop-color: rgb(183, 15, 29);"></stop>
      <stop offset="1" style="stop-color: rgb(183, 15, 29);"></stop>
    </linearGradient>
    <radialGradient id="gradient-1" gradientUnits="userSpaceOnUse" cx="134.789" cy="69.361" r="49.956" gradientTransform="matrix(1, 0, 0, 1, 0, 0)">
      <stop offset="0" style="stop-color: rgb(255, 238, 11);"></stop>
      <stop offset="1" style="stop-color: rgb(250, 176, 9);"></stop>
    </radialGradient>
    <linearGradient id="gradient-0" gradientUnits="userSpaceOnUse" x1="134.85" y1="20.8" x2="134.85" y2="117.6" spreadMethod="repeat" gradientTransform="matrix(1, -0.000572, 0.000591, 1.034101, -0.434867, -2.35519)">
      <stop offset="0" style="stop-color: rgb(249, 243, 11);"></stop>
      <stop offset="0.075" style="stop-color: rgb(249, 243, 11);"></stop>
      <stop offset="0.132" style="stop-color: rgb(255, 255, 255);"></stop>
      <stop offset="0.191" style="stop-color: rgb(249, 243, 11);"></stop>
      <stop offset="0.263" style="stop-color: rgb(183, 15, 30);"></stop>
      <stop offset="0.652" style="stop-color: rgb(249, 241, 11);"></stop>
      <stop offset="0.726" style="stop-color: rgb(255, 255, 255);"></stop>
      <stop offset="0.8" style="stop-color: rgb(183, 15, 29);"></stop>
      <stop offset="1" style="stop-color: rgb(183, 15, 29);"></stop>
    </linearGradient>
  </defs>
  <g style="">
    <polygon style="stroke: rgb(0, 0, 0); fill: url(#gradient-2); stroke-width: 3px;" points="95.726 13.981 79.017 30.69 79.017 108.44 95.726 125.082 173.377 125.082 190.544 108.44 190.544 30.69 173.377 13.981"></polygon>
    <polygon style="fill: url(#gradient-1);" points="84.833 47.409 84.833 33.077 98.337 19.573 171.003 19.573 184.745 33.315 184.745 105.381 170.977 119.149 98.28 119.149 84.84 105.709"></polygon>
    <path style="stroke: url(#gradient-0); fill: none; stroke-width: 3px;" d="M 86.3 45.9 L 86.344 33.768 L 99 21 L 111.5 21 L 111.5 28 C 111.5 31 113 32.3 116 32.3 L 154 32.3 C 157 32.3 158 31 158 28 L 158 21 L 170.4 21 L 183.2 33.8 L 183.2 45.9 L 176.2 45.9 C 173.2 45.9 171.9 47.4 171.9 50.4 L 171.6 69.4 L 171.3 88.4 C 171.3 91.4 173.4 92.4 176.2 92.4 L 183.2 92.4 L 183.2 104.8 L 170.4 117.6 L 158 117.6 L 158 110.6 C 158 107.6 157 106.3 154 106.3 L 116 106.3 C 113 106.3 111.5 107.6 111.5 110.6 L 111.5 117.6 L 99 117.6 L 86.3 105.2 L 86.3 92.7 L 93.6 92.7 C 96.6 92.7 97.9 91.2 97.9 88.2 L 97.9 69.4 L 97.9 50.4 C 97.9 47.4 96.6 45.9 93.3 45.9 L 86.3 45.9 Z" bx:origin="-0.000614 0"></path>
  </g>
</svg>
