<svg viewBox="150.487 108.533 196.599 151.795" xmlns="http://www.w3.org/2000/svg" xmlns:bx="https://boxy-svg.com">
  <g>
    <circle style="stroke: rgb(0, 0, 0); fill: none; stroke-width: 10px;" cx="248" cy="179" r="47"></circle>
    <line style="stroke: rgb(0, 0, 0); fill: none; stroke-width: 4px;" x1="248" y1="226" x2="248" y2="132"></line>
    <line style="stroke: rgb(0, 0, 0); fill: none; stroke-width: 4px;" x1="201" y1="179" x2="295" y2="179"></line>
    <path style="stroke: rgb(0, 0, 0); fill: none; stroke-width: 4px;" d="M 248 132 C 216 146 216 212 248 226"></path>
    <path style="stroke: rgb(0, 0, 0); fill: none; stroke-width: 4px;" d="M 248 132 C 280 146 280 212 248 226"></path>
    <path style="stroke: rgb(0, 0, 0); fill: none; stroke-width: 4px;" d="M 213 148 C 232 159 264 159 283 148"></path>
    <path style="stroke: rgb(0, 0, 0); fill: none; stroke-width: 4px;" d="M 213 210 C 232 199 264 199 283 210"></path>
    <line style="stroke: rgb(0, 0, 0); stroke-width: 11px;" x1="280" y1="144" x2="303" y2="121"></line>
    <path d="M 295 129 L 285 125 L 305 119 L 299 139 L 295 129 Z" style="stroke: rgb(0, 0, 0); fill: none; stroke-width: 10px;"></path>
  </g>
  <g>
    <path style="stroke: rgb(0, 0, 0); fill: none; stroke-width: 6px; stroke-linejoin: bevel;" d="M 238.5 256 L 238.511 237.35 L 230 237.4 L 251 237.4"></path>
    <path style="stroke-width: 6px; stroke-linejoin: bevel; fill: none; stroke: rgb(0, 0, 0);" d="M 246 256 L 245.956 242.033 L 252.966 250.911 L 260.396 234.944 L 260.4 256"></path>
  </g>
  <g>
    <path style="" d="M 172.27 133.004 C 172.27 133.004 168.59 139.42 166.83 150.043 C 166.269 153.428 168.195 159.918 170.167 159.78 C 172.507 159.616 174.399 153.352 174.352 149.721 C 174.22 139.493 172.27 133.004 172.27 133.004 Z"></path>
    <path style="" d="M 179.67 120.679 C 179.67 120.679 177.417 126.402 175.601 136.124 C 175.022 139.222 177.01 145.162 179.046 145.036 C 181.461 144.886 183.414 139.153 183.365 135.83 C 183.229 126.469 179.67 120.679 179.67 120.679 Z" transform="matrix(0.995418, 0.09562, -0.09562, 0.995418, 13.526105, -16.548567)"></path>
    <path style="" d="M 180.538 139.281 C 180.538 139.281 179.864 141.098 178.048 150.82 C 177.469 153.918 179.946 159.372 181.982 159.246 C 184.397 159.096 184.504 154.147 184.455 150.824 C 184.319 141.463 180.538 139.281 180.538 139.281 Z" transform="matrix(0.679655, 0.733532, -0.733532, 0.679655, 167.540942, -85.109129)"></path>
    <path style="" d="M 166.877 147.023 C 166.877 147.023 161.384 156.331 159.624 166.954 C 159.063 170.339 161.517 177.733 163.489 177.595 C 165.829 177.431 167.721 171.167 167.674 167.536 C 167.542 157.308 166.877 147.023 166.877 147.023 Z" transform="matrix(0.979359, -0.20213, 0.20213, 0.979359, -29.430604, 36.420509)"></path>
    <path style="" d="M 179.449 149.956 C 179.449 149.956 174.76 156.778 173.519 163.933 C 172.933 167.314 175.412 174.712 177.384 174.574 C 179.724 174.41 181.706 168.144 181.569 164.515 C 181.364 159.068 179.449 149.956 179.449 149.956 Z" transform="matrix(0.788913, 0.614505, -0.614505, 0.788913, 137.181977, -74.824622)"></path>
    <path style="" d="M 164.503 166.952 C 164.503 166.952 159.01 176.26 157.25 186.883 C 156.689 190.268 159.143 197.662 161.115 197.524 C 163.455 197.36 165.347 191.096 165.3 187.465 C 165.168 177.237 164.503 166.952 164.503 166.952 Z" transform="matrix(0.895455, -0.445152, 0.445152, 0.895455, -64.267751, 90.826137)"></path>
    <path style="" d="M 176.905 165.555 C 176.905 165.555 172.216 172.377 170.975 179.532 C 170.389 182.913 172.868 190.311 174.84 190.173 C 177.18 190.009 179.162 183.743 179.025 180.114 C 178.82 174.667 176.905 165.555 176.905 165.555 Z" transform="matrix(0.932863, 0.36023, -0.36023, 0.932863, 75.818511, -51.084499)"></path>
    <path style="" d="M 166.767 185.469 C 166.767 185.469 161.274 194.777 159.514 205.4 C 158.953 208.785 161.407 216.179 163.379 216.041 C 165.719 215.877 167.611 209.613 167.564 205.982 C 167.432 195.754 166.767 185.469 166.767 185.469 Z" transform="matrix(0.761, -0.648752, 0.648752, 0.761, -91.164614, 154.050871)"></path>
    <path style="" d="M 178.65 181.569 C 178.65 181.569 173.961 188.391 172.72 195.546 C 172.134 198.927 174.613 206.325 176.585 206.187 C 178.925 206.023 180.907 199.757 180.77 196.128 C 180.565 190.681 178.65 181.569 178.65 181.569 Z" transform="matrix(0.988687, 0.149996, -0.149996, 0.988687, 31.08019, -24.311554)"></path>
    <path style="" d="M 173.709 205.247 C 173.709 205.247 169.287 211.545 167.527 222.168 C 166.966 225.553 170.146 233.83 172.118 233.692 C 174.458 233.528 176.666 227.809 176.143 224.216 C 174.97 216.158 173.709 205.247 173.709 205.247 Z" transform="matrix(0.556762, -0.830672, 0.830672, 0.556762, -106.141382, 240.021181)"></path>
    <path style="" d="M 183.828 196.241 C 183.828 196.241 179.139 203.063 177.898 210.218 C 177.312 213.599 179.791 220.997 181.763 220.859 C 184.103 220.695 186.085 214.429 185.948 210.8 C 185.743 205.353 183.828 196.241 183.828 196.241 Z" transform="matrix(0.999935, -0.011418, 0.011418, 0.999935, -2.369378, 2.090331)"></path>
    <path style="" d="M 186.019 221.143 C 186.019 221.143 181.597 227.442 179.837 238.065 C 179.276 241.45 182.456 249.727 184.428 249.589 C 186.768 249.425 188.976 243.706 188.453 240.113 C 187.28 232.055 186.019 221.143 186.019 221.143 Z" transform="matrix(0.293971, -0.955814, 0.955814, 0.293971, -94.951004, 342.190071)"></path>
    <path style="" d="M 192.479 207.111 C 192.479 207.111 187.79 213.933 186.549 221.088 C 185.963 224.469 188.442 231.867 190.414 231.729 C 192.754 231.565 194.736 225.299 194.599 221.67 C 194.394 216.223 192.479 207.111 192.479 207.111 Z" transform="matrix(0.963499, -0.267712, 0.267712, 0.963499, -52.013692, 59.865392)" bx:origin="0.868 0.551"></path>
    <path style="" d="M 200.692 231.359 C 200.692 231.359 196.27 237.658 194.51 248.281 C 193.949 251.666 197.129 259.943 199.101 259.805 C 201.441 259.641 203.649 253.922 203.126 250.329 C 201.953 242.271 200.692 231.359 200.692 231.359 Z" transform="matrix(-0.040182, -0.999192, 0.999192, -0.040182, -38.571243, 454.114399)"></path>
    <path style="" d="M 205.182 215.509 C 205.182 215.509 199.483 222.014 197.975 228.836 C 197.263 232.06 200.276 239.114 202.673 238.982 C 205.517 238.826 207.926 232.851 207.759 229.391 C 207.51 224.198 205.182 215.509 205.182 215.509 Z" transform="matrix(0.862056, -0.506813, 0.506813, 0.862056, -87.298203, 136.149341)" bx:origin="0.868 0.551"></path>
    <path style="" d="M 219.378 234.775 C 219.378 234.775 214.648 245.288 212.888 255.911 C 212.327 259.296 215.507 267.573 217.479 267.435 C 219.819 267.271 222.027 261.552 221.504 257.959 C 220.331 249.901 219.378 234.775 219.378 234.775 Z" transform="matrix(-0.309717, -0.950829, 0.950829, -0.309717, 45.71461, 535.39961)"></path>
    <path style="" d="M 218.635 220.803 C 218.635 220.803 212.936 227.308 211.428 234.13 C 210.716 237.354 213.729 244.408 216.126 244.276 C 218.97 244.12 220.88 240.494 220.713 237.034 C 220.464 231.841 218.635 220.803 218.635 220.803 Z" transform="matrix(0.649861, -0.760053, 0.760053, 0.649861, -100.803743, 248.658681)" bx:origin="0.868 0.551"></path>
  </g>
  <g transform="matrix(-1, 0, 0, 1, 497.573425, 0)">
    <path style="" d="M 172.27 133.004 C 172.27 133.004 168.59 139.42 166.83 150.043 C 166.269 153.428 168.195 159.918 170.167 159.78 C 172.507 159.616 174.399 153.352 174.352 149.721 C 174.22 139.493 172.27 133.004 172.27 133.004 Z"></path>
    <path style="" d="M 179.67 120.679 C 179.67 120.679 177.417 126.402 175.601 136.124 C 175.022 139.222 177.01 145.162 179.046 145.036 C 181.461 144.886 183.414 139.153 183.365 135.83 C 183.229 126.469 179.67 120.679 179.67 120.679 Z" transform="matrix(0.995418, 0.09562, -0.09562, 0.995418, 13.526105, -16.548567)"></path>
    <path style="" d="M 180.538 139.281 C 180.538 139.281 179.864 141.098 178.048 150.82 C 177.469 153.918 179.946 159.372 181.982 159.246 C 184.397 159.096 184.504 154.147 184.455 150.824 C 184.319 141.463 180.538 139.281 180.538 139.281 Z" transform="matrix(0.679655, 0.733532, -0.733532, 0.679655, 167.540942, -85.109129)"></path>
    <path style="" d="M 166.877 147.023 C 166.877 147.023 161.384 156.331 159.624 166.954 C 159.063 170.339 161.517 177.733 163.489 177.595 C 165.829 177.431 167.721 171.167 167.674 167.536 C 167.542 157.308 166.877 147.023 166.877 147.023 Z" transform="matrix(0.979359, -0.20213, 0.20213, 0.979359, -29.430604, 36.420509)"></path>
    <path style="" d="M 179.449 149.956 C 179.449 149.956 174.76 156.778 173.519 163.933 C 172.933 167.314 175.412 174.712 177.384 174.574 C 179.724 174.41 181.706 168.144 181.569 164.515 C 181.364 159.068 179.449 149.956 179.449 149.956 Z" transform="matrix(0.788913, 0.614505, -0.614505, 0.788913, 137.181977, -74.824622)"></path>
    <path style="" d="M 164.503 166.952 C 164.503 166.952 159.01 176.26 157.25 186.883 C 156.689 190.268 159.143 197.662 161.115 197.524 C 163.455 197.36 165.347 191.096 165.3 187.465 C 165.168 177.237 164.503 166.952 164.503 166.952 Z" transform="matrix(0.895455, -0.445152, 0.445152, 0.895455, -64.267751, 90.826137)"></path>
    <path style="" d="M 176.905 165.555 C 176.905 165.555 172.216 172.377 170.975 179.532 C 170.389 182.913 172.868 190.311 174.84 190.173 C 177.18 190.009 179.162 183.743 179.025 180.114 C 178.82 174.667 176.905 165.555 176.905 165.555 Z" transform="matrix(0.932863, 0.36023, -0.36023, 0.932863, 75.818511, -51.084499)"></path>
    <path style="" d="M 166.767 185.469 C 166.767 185.469 161.274 194.777 159.514 205.4 C 158.953 208.785 161.407 216.179 163.379 216.041 C 165.719 215.877 167.611 209.613 167.564 205.982 C 167.432 195.754 166.767 185.469 166.767 185.469 Z" transform="matrix(0.761, -0.648752, 0.648752, 0.761, -91.164614, 154.050871)"></path>
    <path style="" d="M 178.65 181.569 C 178.65 181.569 173.961 188.391 172.72 195.546 C 172.134 198.927 174.613 206.325 176.585 206.187 C 178.925 206.023 180.907 199.757 180.77 196.128 C 180.565 190.681 178.65 181.569 178.65 181.569 Z" transform="matrix(0.988687, 0.149996, -0.149996, 0.988687, 31.08019, -24.311554)"></path>
    <path style="" d="M 173.709 205.247 C 173.709 205.247 169.287 211.545 167.527 222.168 C 166.966 225.553 170.146 233.83 172.118 233.692 C 174.458 233.528 176.666 227.809 176.143 224.216 C 174.97 216.158 173.709 205.247 173.709 205.247 Z" transform="matrix(0.556762, -0.830672, 0.830672, 0.556762, -106.141382, 240.021181)"></path>
    <path style="" d="M 183.828 196.241 C 183.828 196.241 179.139 203.063 177.898 210.218 C 177.312 213.599 179.791 220.997 181.763 220.859 C 184.103 220.695 186.085 214.429 185.948 210.8 C 185.743 205.353 183.828 196.241 183.828 196.241 Z" transform="matrix(0.999935, -0.011418, 0.011418, 0.999935, -2.369378, 2.090331)"></path>
    <path style="" d="M 186.019 221.143 C 186.019 221.143 181.597 227.442 179.837 238.065 C 179.276 241.45 182.456 249.727 184.428 249.589 C 186.768 249.425 188.976 243.706 188.453 240.113 C 187.28 232.055 186.019 221.143 186.019 221.143 Z" transform="matrix(0.293971, -0.955814, 0.955814, 0.293971, -94.951004, 342.190071)"></path>
    <path style="" d="M 192.479 207.111 C 192.479 207.111 187.79 213.933 186.549 221.088 C 185.963 224.469 188.442 231.867 190.414 231.729 C 192.754 231.565 194.736 225.299 194.599 221.67 C 194.394 216.223 192.479 207.111 192.479 207.111 Z" transform="matrix(0.963499, -0.267712, 0.267712, 0.963499, -52.013692, 59.865392)" bx:origin="0.868 0.551"></path>
    <path style="" d="M 200.692 231.359 C 200.692 231.359 196.27 237.658 194.51 248.281 C 193.949 251.666 197.129 259.943 199.101 259.805 C 201.441 259.641 203.649 253.922 203.126 250.329 C 201.953 242.271 200.692 231.359 200.692 231.359 Z" transform="matrix(-0.040182, -0.999192, 0.999192, -0.040182, -38.571243, 454.114399)"></path>
    <path style="" d="M 205.182 215.509 C 205.182 215.509 199.483 222.014 197.975 228.836 C 197.263 232.06 200.276 239.114 202.673 238.982 C 205.517 238.826 207.926 232.851 207.759 229.391 C 207.51 224.198 205.182 215.509 205.182 215.509 Z" transform="matrix(0.862056, -0.506813, 0.506813, 0.862056, -87.298203, 136.149341)" bx:origin="0.868 0.551"></path>
    <path style="" d="M 219.378 234.775 C 219.378 234.775 214.648 245.288 212.888 255.911 C 212.327 259.296 215.507 267.573 217.479 267.435 C 219.819 267.271 222.027 261.552 221.504 257.959 C 220.331 249.901 219.378 234.775 219.378 234.775 Z" transform="matrix(-0.309717, -0.950829, 0.950829, -0.309717, 45.71461, 535.39961)"></path>
    <path style="" d="M 218.635 220.803 C 218.635 220.803 212.936 227.308 211.428 234.13 C 210.716 237.354 213.729 244.408 216.126 244.276 C 218.97 244.12 220.88 240.494 220.713 237.034 C 220.464 231.841 218.635 220.803 218.635 220.803 Z" transform="matrix(0.649861, -0.760053, 0.760053, 0.649861, -100.803743, 248.658681)" bx:origin="0.868 0.551"></path>
  </g>
</svg>
